<svg width="134" height="133" viewBox="0 0 134 133" fill="none" xmlns="http://www.w3.org/2000/svg">
<path d="M6.40428 49.0905C1.8186 43.2885 5.45966 34.7107 12.8188 33.9789V33.9789C18.2776 33.4361 22.1004 28.3347 21.0885 22.943V22.943C19.7244 15.6746 26.9347 9.77137 33.7909 12.5434V12.5434C38.8768 14.5996 44.6324 11.8591 46.2421 6.61476V6.61476C48.4121 -0.455109 57.5398 -2.33132 62.3225 3.30942V3.30942C65.8702 7.49365 72.2401 7.74179 76.1026 3.84621V3.84621C81.3095 -1.40539 90.2637 1.17518 91.8771 8.39242V8.39242C93.074 13.7461 98.5989 16.926 103.829 15.2717V15.2717C110.88 13.0414 117.61 19.4876 115.684 26.6279V26.6279C114.256 31.9246 117.67 37.3079 123.071 38.2737V38.2737C130.35 39.5757 133.313 48.4107 128.29 53.8384V53.8384C124.564 57.8646 125.085 64.218 129.418 67.5827V67.5827C135.259 72.1187 133.777 81.3186 126.807 83.7903V83.7903C121.636 85.6237 119.145 91.4917 121.418 96.4845V96.4845C124.482 103.215 118.894 110.673 111.574 109.622V109.622C106.143 108.843 101.211 112.881 100.903 118.358V118.358C100.488 125.742 92.0746 129.748 86.081 125.416V125.416C81.635 122.202 75.3908 123.485 72.5728 128.192V128.192C68.774 134.537 59.4624 134.175 56.1687 127.553V127.553C53.7254 122.641 47.5999 120.876 42.9175 123.734V123.734C36.605 127.587 28.5286 122.939 28.6893 115.545V115.545C28.8084 110.06 24.205 105.651 18.7307 106.005V106.005C11.3507 106.483 6.35971 98.614 9.93794 92.1419V92.1419C12.5922 87.341 10.5654 81.297 5.55336 79.067V79.067C-1.2034 76.0606 -1.9657 66.7733 4.2104 62.7054V62.7054C8.79175 59.6879 9.80589 53.3943 6.40428 49.0905V49.0905Z" fill="url(#paint0_linear_1_102)"/>
<defs>
<linearGradient id="paint0_linear_1_102" x1="118.797" y1="4.10001" x2="78.2488" y2="114.299" gradientUnits="userSpaceOnUse">
<stop stop-color="#237249"/>
<stop offset="1" stop-color="#35C66B"/>
</linearGradient>
</defs>
</svg>
